<svg xmlns="http://www.w3.org/2000/svg" xml:space="preserve" xmlns:xlink="http://www.w3.org/1999/xlink" style="max-width: 100%;height: auto;" width="1072.5" height="1340.625" viewBox="0 0 1072.5 1340.625">
<defs><linearGradient id="pattern-mask" x1="0%" y1="0%" x2="12%" y2="100%" gradientUnits="userSpaceOnUse"><stop offset="0%" stop-color="#818cf8"></stop><stop offset="100%" stop-color="#22d3ee"></stop></linearGradient>
<mask id="qrmask"><g fill="#ffffff"><g transform="scale(44.6875)" fill="#818cf8"><path d="M1.3,24l21.3,0c0.7,0,1.3-0.6,1.3-1.3l0-21.3C24,0.6,23.4,0,22.7,0L1.3,0C0.6,0,0,0.6,0,1.3l0,21.3 C0,23.4,0.6,24,1.3,24z M1,2c0-0.6,0.5-1,1-1l20,0c0.6,0,1,0.5,1,1v20c0,0.6-0.5,1-1,1L2,23c-0.6,0-1-0.5-1-1V2z"></path><path d="M1,30h22c0.5,0,1-0.4,1-1v-3c0-0.5-0.4-1-1-1H13l-1-1l-1,1H1c-0.5,0-1,0.4-1,1v3C0,29.6,0.4,30,1,30z"></path></g>
<g>
<g transform="translate(315.25,107.25) scale(4.4633333333333)"><path d="M6,5.5H3C1.6,5.5,0.5,4.4,0.5,3v0c0-1.4,1.1-2.5,2.5-2.5h3V5.5z"></path></g>
<g transform="translate(341.25,107.25) scale(4.4633333333333)"><rect y="0.5" width="6" height="5"></rect></g>
<g transform="translate(367.25,107.25) scale(4.4633333333333)"><path d="M3,5.5H0v-5h3c1.4,0,2.5,1.1,2.5,2.5v0C5.5,4.4,4.4,5.5,3,5.5z"></path></g>
<g transform="translate(419.25,107.25) scale(4.4633333333333)"><path d="M6,5.5H3C1.6,5.5,0.5,4.4,0.5,3v0c0-1.4,1.1-2.5,2.5-2.5h3V5.5z"></path></g>
<g transform="translate(445.25,107.25) scale(4.4633333333333)"><rect y="0.5" width="6" height="5"></rect></g>
<g transform="translate(471.25,107.25) scale(4.4633333333333)"><path d="M3,5.5H0v-5h3c1.4,0,2.5,1.1,2.5,2.5v0C5.5,4.4,4.4,5.5,3,5.5z"></path></g>
<g transform="translate(575.25,107.25) scale(4.4633333333333)"><path d="M6,5.5H3C1.6,5.5,0.5,4.4,0.5,3v0c0-1.4,1.1-2.5,2.5-2.5h3V5.5z"></path></g>
<g transform="translate(601.25,107.25) scale(4.4633333333333)"><path d="M3,5.5H0v-5h3c1.4,0,2.5,1.1,2.5,2.5v0C5.5,4.4,4.4,5.5,3,5.5z"></path></g>
<g transform="translate(705.25,107.25) scale(4.4633333333333)"><path d="M6,5.5H3C1.6,5.5,0.5,4.4,0.5,3v0c0-1.4,1.1-2.5,2.5-2.5h3V5.5z"></path></g>
<g transform="translate(731.25,107.25) scale(4.4633333333333)"><path d="M3,5.5H0v-5h3c1.4,0,2.5,1.1,2.5,2.5v0C5.5,4.4,4.4,5.5,3,5.5z"></path></g>
<g transform="translate(315.25,133.25) scale(4.4633333333333)"><path d="M6,5.5H3C1.6,5.5,0.5,4.4,0.5,3v0c0-1.4,1.1-2.5,2.5-2.5h3V5.5z"></path></g>
<g transform="translate(341.25,133.25) scale(4.4633333333333)"><rect y="0.5" width="6" height="5"></rect></g>
<g transform="translate(367.25,133.25) scale(4.4633333333333)"><rect y="0.5" width="6" height="5"></rect></g>
<g transform="translate(393.25,133.25) scale(4.4633333333333)"><path d="M3,5.5H0v-5h3c1.4,0,2.5,1.1,2.5,2.5v0C5.5,4.4,4.4,5.5,3,5.5z"></path></g>
<g transform="translate(445.25,133.25) scale(4.4633333333333)"><circle cx="3" cy="3" r="2.5"></circle></g>
<g transform="translate(497.25,133.25) scale(4.4633333333333)"><path d="M6,5.5H3C1.6,5.5,0.5,4.4,0.5,3v0c0-1.4,1.1-2.5,2.5-2.5h3V5.5z"></path></g>
<g transform="translate(523.25,133.25) scale(4.4633333333333)"><path d="M3,5.5H0v-5h3c1.4,0,2.5,1.1,2.5,2.5v0C5.5,4.4,4.4,5.5,3,5.5z"></path></g>
<g transform="translate(575.25,133.25) scale(4.4633333333333)"><path d="M6,5.5H3C1.6,5.5,0.5,4.4,0.5,3v0c0-1.4,1.1-2.5,2.5-2.5h3V5.5z"></path></g>
<g transform="translate(601.25,133.25) scale(4.4633333333333)"><path d="M3,5.5H0v-5h3c1.4,0,2.5,1.1,2.5,2.5v0C5.5,4.4,4.4,5.5,3,5.5z"></path></g>
<g transform="translate(653.25,133.25) scale(4.4633333333333)"><circle cx="3" cy="3" r="2.5"></circle></g>
<g transform="translate(731.25,133.25) scale(4.4633333333333)"><circle cx="3" cy="3" r="2.5"></circle></g>
<g transform="translate(315.25,159.25) scale(4.4633333333333)"><circle cx="3" cy="3" r="2.5"></circle></g>
<g transform="translate(367.25,159.25) scale(4.4633333333333)"><circle cx="3" cy="3" r="2.5"></circle></g>
<g transform="translate(419.25,159.25) scale(4.4633333333333)"><circle cx="3" cy="3" r="2.5"></circle></g>
<g transform="translate(549.25,159.25) scale(4.4633333333333)"><path d="M6,5.5H3C1.6,5.5,0.5,4.4,0.5,3v0c0-1.4,1.1-2.5,2.5-2.5h3V5.5z"></path></g>
<g transform="translate(575.25,159.25) scale(4.4633333333333)"><path d="M3,5.5H0v-5h3c1.4,0,2.5,1.1,2.5,2.5v0C5.5,4.4,4.4,5.5,3,5.5z"></path></g>
<g transform="translate(627.25,159.25) scale(4.4633333333333)"><path d="M6,5.5H3C1.6,5.5,0.5,4.4,0.5,3v0c0-1.4,1.1-2.5,2.5-2.5h3V5.5z"></path></g>
<g transform="translate(653.25,159.25) scale(4.4633333333333)"><path d="M3,5.5H0v-5h3c1.4,0,2.5,1.1,2.5,2.5v0C5.5,4.4,4.4,5.5,3,5.5z"></path></g>
<g transform="translate(705.25,159.25) scale(4.4633333333333)"><path d="M6,5.5H3C1.6,5.5,0.5,4.4,0.5,3v0c0-1.4,1.1-2.5,2.5-2.5h3V5.5z"></path></g>
<g transform="translate(731.25,159.25) scale(4.4633333333333)"><path d="M3,5.5H0v-5h3c1.4,0,2.5,1.1,2.5,2.5v0C5.5,4.4,4.4,5.5,3,5.5z"></path></g>
<g transform="translate(367.25,185.25) scale(4.4633333333333)"><circle cx="3" cy="3" r="2.5"></circle></g>
<g transform="translate(523.25,185.25) scale(4.4633333333333)"><path d="M6,5.5H3C1.6,5.5,0.5,4.4,0.5,3v0c0-1.4,1.1-2.5,2.5-2.5h3V5.5z"></path></g>
<g transform="translate(549.25,185.25) scale(4.4633333333333)"><path d="M3,5.5H0v-5h3c1.4,0,2.5,1.1,2.5,2.5v0C5.5,4.4,4.4,5.5,3,5.5z"></path></g>
<g transform="translate(601.25,185.25) scale(4.4633333333333)"><circle cx="3" cy="3" r="2.5"></circle></g>
<g transform="translate(679.25,185.25) scale(4.4633333333333)"><path d="M6,5.5H3C1.6,5.5,0.5,4.4,0.5,3v0c0-1.4,1.1-2.5,2.5-2.5h3V5.5z"></path></g>
<g transform="translate(705.25,185.25) scale(4.4633333333333)"><rect y="0.5" width="6" height="5"></rect></g>
<g transform="translate(731.25,185.25) scale(4.4633333333333)"><path d="M3,5.5H0v-5h3c1.4,0,2.5,1.1,2.5,2.5v0C5.5,4.4,4.4,5.5,3,5.5z"></path></g>
<g transform="translate(341.25,211.25) scale(4.4633333333333)"><circle cx="3" cy="3" r="2.5"></circle></g>
<g transform="translate(393.25,211.25) scale(4.4633333333333)"><circle cx="3" cy="3" r="2.5"></circle></g>
<g transform="translate(471.25,211.25) scale(4.4633333333333)"><path d="M6,5.5H3C1.6,5.5,0.5,4.4,0.5,3v0c0-1.4,1.1-2.5,2.5-2.5h3V5.5z"></path></g>
<g transform="translate(497.25,211.25) scale(4.4633333333333)"><rect y="0.5" width="6" height="5"></rect></g>
<g transform="translate(523.25,211.25) scale(4.4633333333333)"><path d="M3,5.5H0v-5h3c1.4,0,2.5,1.1,2.5,2.5v0C5.5,4.4,4.4,5.5,3,5.5z"></path></g>
<g transform="translate(601.25,211.25) scale(4.4633333333333)"><circle cx="3" cy="3" r="2.5"></circle></g>
<g transform="translate(653.25,211.25) scale(4.4633333333333)"><path d="M6,5.5H3C1.6,5.5,0.5,4.4,0.5,3v0c0-1.4,1.1-2.5,2.5-2.5h3V5.5z"></path></g>
<g transform="translate(679.25,211.25) scale(4.4633333333333)"><rect y="0.5" width="6" height="5"></rect></g>
<g transform="translate(705.25,211.25) scale(4.4633333333333)"><rect y="0.5" width="6" height="5"></rect></g>
<g transform="translate(731.25,211.25) scale(4.4633333333333)"><path d="M3,5.5H0v-5h3c1.4,0,2.5,1.1,2.5,2.5v0C5.5,4.4,4.4,5.5,3,5.5z"></path></g>
<g transform="translate(315.25,237.25) scale(4.4633333333333)"><circle cx="3" cy="3" r="2.5"></circle></g>
<g transform="translate(367.25,237.25) scale(4.4633333333333)"><circle cx="3" cy="3" r="2.5"></circle></g>
<g transform="translate(497.25,237.25) scale(4.4633333333333)"><path d="M6,5.5H3C1.6,5.5,0.5,4.4,0.5,3v0c0-1.4,1.1-2.5,2.5-2.5h3V5.5z"></path></g>
<g transform="translate(523.25,237.25) scale(4.4633333333333)"><rect y="0.5" width="6" height="5"></rect></g>
<g transform="translate(549.25,237.25) scale(4.4633333333333)"><rect y="0.5" width="6" height="5"></rect></g>
<g transform="translate(575.25,237.25) scale(4.4633333333333)"><rect y="0.5" width="6" height="5"></rect></g>
<g transform="translate(601.25,237.25) scale(4.4633333333333)"><rect y="0.5" width="6" height="5"></rect></g>
<g transform="translate(627.25,237.25) scale(4.4633333333333)"><rect y="0.5" width="6" height="5"></rect></g>
<g transform="translate(653.25,237.25) scale(4.4633333333333)"><rect y="0.5" width="6" height="5"></rect></g>
<g transform="translate(679.25,237.25) scale(4.4633333333333)"><path d="M3,5.5H0v-5h3c1.4,0,2.5,1.1,2.5,2.5v0C5.5,4.4,4.4,5.5,3,5.5z"></path></g>
<g transform="translate(731.25,237.25) scale(4.4633333333333)"><circle cx="3" cy="3" r="2.5"></circle></g>
<g transform="translate(315.25,263.25) scale(4.4633333333333)"><circle cx="3" cy="3" r="2.5"></circle></g>
<g transform="translate(367.25,263.25) scale(4.4633333333333)"><circle cx="3" cy="3" r="2.5"></circle></g>
<g transform="translate(419.25,263.25) scale(4.4633333333333)"><circle cx="3" cy="3" r="2.5"></circle></g>
<g transform="translate(471.25,263.25) scale(4.4633333333333)"><circle cx="3" cy="3" r="2.5"></circle></g>
<g transform="translate(523.25,263.25) scale(4.4633333333333)"><circle cx="3" cy="3" r="2.5"></circle></g>
<g transform="translate(575.25,263.25) scale(4.4633333333333)"><circle cx="3" cy="3" r="2.5"></circle></g>
<g transform="translate(627.25,263.25) scale(4.4633333333333)"><circle cx="3" cy="3" r="2.5"></circle></g>
<g transform="translate(679.25,263.25) scale(4.4633333333333)"><circle cx="3" cy="3" r="2.5"></circle></g>
<g transform="translate(731.25,263.25) scale(4.4633333333333)"><circle cx="3" cy="3" r="2.5"></circle></g>
<g transform="translate(315.25,289.25) scale(4.4633333333333)"><path d="M6,5.5H3C1.6,5.5,0.5,4.4,0.5,3v0c0-1.4,1.1-2.5,2.5-2.5h3V5.5z"></path></g>
<g transform="translate(341.25,289.25) scale(4.4633333333333)"><rect y="0.5" width="6" height="5"></rect></g>
<g transform="translate(367.25,289.25) scale(4.4633333333333)"><path d="M3,5.5H0v-5h3c1.4,0,2.5,1.1,2.5,2.5v0C5.5,4.4,4.4,5.5,3,5.5z"></path></g>
<g transform="translate(445.25,289.25) scale(4.4633333333333)"><path d="M6,5.5H3C1.6,5.5,0.5,4.4,0.5,3v0c0-1.4,1.1-2.5,2.5-2.5h3V5.5z"></path></g>
<g transform="translate(471.25,289.25) scale(4.4633333333333)"><path d="M3,5.5H0v-5h3c1.4,0,2.5,1.1,2.5,2.5v0C5.5,4.4,4.4,5.5,3,5.5z"></path></g>
<g transform="translate(523.25,289.25) scale(4.4633333333333)"><circle cx="3" cy="3" r="2.5"></circle></g>
<g transform="translate(575.25,289.25) scale(4.4633333333333)"><path d="M6,5.5H3C1.6,5.5,0.5,4.4,0.5,3v0c0-1.4,1.1-2.5,2.5-2.5h3V5.5z"></path></g>
<g transform="translate(601.25,289.25) scale(4.4633333333333)"><rect y="0.5" width="6" height="5"></rect></g>
<g transform="translate(627.25,289.25) scale(4.4633333333333)"><rect y="0.5" width="6" height="5"></rect></g>
<g transform="translate(653.25,289.25) scale(4.4633333333333)"><rect y="0.5" width="6" height="5"></rect></g>
<g transform="translate(679.25,289.25) scale(4.4633333333333)"><path d="M3,5.5H0v-5h3c1.4,0,2.5,1.1,2.5,2.5v0C5.5,4.4,4.4,5.5,3,5.5z"></path></g>
<g transform="translate(731.25,289.25) scale(4.4633333333333)"><circle cx="3" cy="3" r="2.5"></circle></g>
<g transform="translate(159.25,315.25) scale(4.4633333333333)"><path d="M6,5.5H3C1.6,5.5,0.5,4.4,0.5,3v0c0-1.4,1.1-2.5,2.5-2.5h3V5.5z"></path></g>
<g transform="translate(185.25,315.25) scale(4.4633333333333)"><rect y="0.5" width="6" height="5"></rect></g>
<g transform="translate(211.25,315.25) scale(4.4633333333333)"><path d="M3,5.5H0v-5h3c1.4,0,2.5,1.1,2.5,2.5v0C5.5,4.4,4.4,5.5,3,5.5z"></path></g>
<g transform="translate(263.25,315.25) scale(4.4633333333333)"><circle cx="3" cy="3" r="2.5"></circle></g>
<g transform="translate(315.25,315.25) scale(4.4633333333333)"><path d="M6,5.5H3C1.6,5.5,0.5,4.4,0.5,3v0c0-1.4,1.1-2.5,2.5-2.5h3V5.5z"></path></g>
<g transform="translate(341.25,315.25) scale(4.4633333333333)"><rect y="0.5" width="6" height="5"></rect></g>
<g transform="translate(367.25,315.25) scale(4.4633333333333)"><rect y="0.5" width="6" height="5"></rect></g>
<g transform="translate(393.25,315.25) scale(4.4633333333333)"><path d="M3,5.5H0v-5h3c1.4,0,2.5,1.1,2.5,2.5v0C5.5,4.4,4.4,5.5,3,5.5z"></path></g>
<g transform="translate(471.25,315.25) scale(4.4633333333333)"><path d="M6,5.5H3C1.6,5.5,0.5,4.4,0.5,3v0c0-1.4,1.1-2.5,2.5-2.5h3V5.5z"></path></g>
<g transform="translate(497.25,315.25) scale(4.4633333333333)"><rect y="0.5" width="6" height="5"></rect></g>
<g transform="translate(523.25,315.25) scale(4.4633333333333)"><path d="M3,5.5H0v-5h3c1.4,0,2.5,1.1,2.5,2.5v0C5.5,4.4,4.4,5.5,3,5.5z"></path></g>
<g transform="translate(575.25,315.25) scale(4.4633333333333)"><path d="M6,5.5H3C1.6,5.5,0.5,4.4,0.5,3v0c0-1.4,1.1-2.5,2.5-2.5h3V5.5z"></path></g>
<g transform="translate(601.25,315.25) scale(4.4633333333333)"><rect y="0.5" width="6" height="5"></rect></g>
<g transform="translate(627.25,315.25) scale(4.4633333333333)"><path d="M3,5.5H0v-5h3c1.4,0,2.5,1.1,2.5,2.5v0C5.5,4.4,4.4,5.5,3,5.5z"></path></g>
<g transform="translate(679.25,315.25) scale(4.4633333333333)"><circle cx="3" cy="3" r="2.5"></circle></g>
<g transform="translate(731.25,315.25) scale(4.4633333333333)"><path d="M6,5.5H3C1.6,5.5,0.5,4.4,0.5,3v0c0-1.4,1.1-2.5,2.5-2.5h3V5.5z"></path></g>
<g transform="translate(757.25,315.25) scale(4.4633333333333)"><rect y="0.5" width="6" height="5"></rect></g>
<g transform="translate(783.25,315.25) scale(4.4633333333333)"><rect y="0.5" width="6" height="5"></rect></g>
<g transform="translate(809.25,315.25) scale(4.4633333333333)"><path d="M3,5.5H0v-5h3c1.4,0,2.5,1.1,2.5,2.5v0C5.5,4.4,4.4,5.5,3,5.5z"></path></g>
<g transform="translate(887.25,315.25) scale(4.4633333333333)"><path d="M6,5.5H3C1.6,5.5,0.5,4.4,0.5,3v0c0-1.4,1.1-2.5,2.5-2.5h3V5.5z"></path></g>
<g transform="translate(913.25,315.25) scale(4.4633333333333)"><rect y="0.5" width="6" height="5"></rect></g>
<g transform="translate(939.25,315.25) scale(4.4633333333333)"><path d="M3,5.5H0v-5h3c1.4,0,2.5,1.1,2.5,2.5v0C5.5,4.4,4.4,5.5,3,5.5z"></path></g>
<g transform="translate(107.25,341.25) scale(4.4633333333333)"><path d="M6,5.5H3C1.6,5.5,0.5,4.4,0.5,3v0c0-1.4,1.1-2.5,2.5-2.5h3V5.5z"></path></g>
<g transform="translate(133.25,341.25) scale(4.4633333333333)"><path d="M3,5.5H0v-5h3c1.4,0,2.5,1.1,2.5,2.5v0C5.5,4.4,4.4,5.5,3,5.5z"></path></g>
<g transform="translate(185.25,341.25) scale(4.4633333333333)"><path d="M6,5.5H3C1.6,5.5,0.5,4.4,0.5,3v0c0-1.4,1.1-2.5,2.5-2.5h3V5.5z"></path></g>
<g transform="translate(211.25,341.25) scale(4.4633333333333)"><path d="M3,5.5H0v-5h3c1.4,0,2.5,1.1,2.5,2.5v0C5.5,4.4,4.4,5.5,3,5.5z"></path></g>
<g transform="translate(289.25,341.25) scale(4.4633333333333)"><path d="M6,5.5H3C1.6,5.5,0.5,4.4,0.5,3v0c0-1.4,1.1-2.5,2.5-2.5h3V5.5z"></path></g>
<g transform="translate(315.25,341.25) scale(4.4633333333333)"><rect y="0.5" width="6" height="5"></rect></g>
<g transform="translate(341.25,341.25) scale(4.4633333333333)"><path d="M3,5.5H0v-5h3c1.4,0,2.5,1.1,2.5,2.5v0C5.5,4.4,4.4,5.5,3,5.5z"></path></g>
<g transform="translate(445.25,341.25) scale(4.4633333333333)"><circle cx="3" cy="3" r="2.5"></circle></g>
<g transform="translate(601.25,341.25) scale(4.4633333333333)"><circle cx="3" cy="3" r="2.5"></circle></g>
<g transform="translate(679.25,341.25) scale(4.4633333333333)"><path d="M6,5.5H3C1.6,5.5,0.5,4.4,0.5,3v0c0-1.4,1.1-2.5,2.5-2.5h3V5.5z"></path></g>
<g transform="translate(705.25,341.25) scale(4.4633333333333)"><path d="M3,5.5H0v-5h3c1.4,0,2.5,1.1,2.5,2.5v0C5.5,4.4,4.4,5.5,3,5.5z"></path></g>
<g transform="translate(757.25,341.25) scale(4.4633333333333)"><path d="M6,5.5H3C1.6,5.5,0.5,4.4,0.5,3v0c0-1.4,1.1-2.5,2.5-2.5h3V5.5z"></path></g>
<g transform="translate(783.25,341.25) scale(4.4633333333333)"><path d="M3,5.5H0v-5h3c1.4,0,2.5,1.1,2.5,2.5v0C5.5,4.4,4.4,5.5,3,5.5z"></path></g>
<g transform="translate(861.25,341.25) scale(4.4633333333333)"><circle cx="3" cy="3" r="2.5"></circle></g>
<g transform="translate(913.25,341.25) scale(4.4633333333333)"><path d="M6,5.5H3C1.6,5.5,0.5,4.4,0.5,3v0c0-1.4,1.1-2.5,2.5-2.5h3V5.5z"></path></g>
<g transform="translate(939.25,341.25) scale(4.4633333333333)"><path d="M3,5.5H0v-5h3c1.4,0,2.5,1.1,2.5,2.5v0C5.5,4.4,4.4,5.5,3,5.5z"></path></g>
<g transform="translate(159.25,367.25) scale(4.4633333333333)"><path d="M6,5.5H3C1.6,5.5,0.5,4.4,0.5,3v0c0-1.4,1.1-2.5,2.5-2.5h3V5.5z"></path></g>
<g transform="translate(185.25,367.25) scale(4.4633333333333)"><path d="M3,5.5H0v-5h3c1.4,0,2.5,1.1,2.5,2.5v0C5.5,4.4,4.4,5.5,3,5.5z"></path></g>
<g transform="translate(263.25,367.25) scale(4.4633333333333)"><circle cx="3" cy="3" r="2.5"></circle></g>
<g transform="translate(341.25,367.25) scale(4.4633333333333)"><circle cx="3" cy="3" r="2.5"></circle></g>
<g transform="translate(445.25,367.25) scale(4.4633333333333)"><circle cx="3" cy="3" r="2.5"></circle></g>
<g transform="translate(523.25,367.25) scale(4.4633333333333)"><path d="M6,5.5H3C1.6,5.5,0.5,4.4,0.5,3v0c0-1.4,1.1-2.5,2.5-2.5h3V5.5z"></path></g>
<g transform="translate(549.25,367.25) scale(4.4633333333333)"><path d="M3,5.5H0v-5h3c1.4,0,2.5,1.1,2.5,2.5v0C5.5,4.4,4.4,5.5,3,5.5z"></path></g>
<g transform="translate(601.25,367.25) scale(4.4633333333333)"><circle cx="3" cy="3" r="2.5"></circle></g>
<g transform="translate(679.25,367.25) scale(4.4633333333333)"><circle cx="3" cy="3" r="2.5"></circle></g>
<g transform="translate(731.25,367.25) scale(4.4633333333333)"><path d="M6,5.5H3C1.6,5.5,0.5,4.4,0.5,3v0c0-1.4,1.1-2.5,2.5-2.5h3V5.5z"></path></g>
<g transform="translate(757.25,367.25) scale(4.4633333333333)"><path d="M3,5.5H0v-5h3c1.4,0,2.5,1.1,2.5,2.5v0C5.5,4.4,4.4,5.5,3,5.5z"></path></g>
<g transform="translate(809.25,367.25) scale(4.4633333333333)"><circle cx="3" cy="3" r="2.5"></circle></g>
<g transform="translate(861.25,367.25) scale(4.4633333333333)"><path d="M6,5.5H3C1.6,5.5,0.5,4.4,0.5,3v0c0-1.4,1.1-2.5,2.5-2.5h3V5.5z"></path></g>
<g transform="translate(887.25,367.25) scale(4.4633333333333)"><rect y="0.5" width="6" height="5"></rect></g>
<g transform="translate(913.25,367.25) scale(4.4633333333333)"><path d="M3,5.5H0v-5h3c1.4,0,2.5,1.1,2.5,2.5v0C5.5,4.4,4.4,5.5,3,5.5z"></path></g>
<g transform="translate(133.25,393.25) scale(4.4633333333333)"><circle cx="3" cy="3" r="2.5"></circle></g>
<g transform="translate(289.25,393.25) scale(4.4633333333333)"><circle cx="3" cy="3" r="2.5"></circle></g>
<g transform="translate(341.25,393.25) scale(4.4633333333333)"><path d="M6,5.5H3C1.6,5.5,0.5,4.4,0.5,3v0c0-1.4,1.1-2.5,2.5-2.5h3V5.5z"></path></g>
<g transform="translate(367.25,393.25) scale(4.4633333333333)"><path d="M3,5.5H0v-5h3c1.4,0,2.5,1.1,2.5,2.5v0C5.5,4.4,4.4,5.5,3,5.5z"></path></g>
<g transform="translate(471.25,393.25) scale(4.4633333333333)"><circle cx="3" cy="3" r="2.5"></circle></g>
<g transform="translate(523.25,393.25) scale(4.4633333333333)"><circle cx="3" cy="3" r="2.5"></circle></g>
<g transform="translate(575.25,393.25) scale(4.4633333333333)"><path d="M6,5.5H3C1.6,5.5,0.5,4.4,0.5,3v0c0-1.4,1.1-2.5,2.5-2.5h3V5.5z"></path></g>
<g transform="translate(601.25,393.25) scale(4.4633333333333)"><path d="M3,5.5H0v-5h3c1.4,0,2.5,1.1,2.5,2.5v0C5.5,4.4,4.4,5.5,3,5.5z"></path></g>
<g transform="translate(653.25,393.25) scale(4.4633333333333)"><path d="M6,5.5H3C1.6,5.5,0.5,4.4,0.5,3v0c0-1.4,1.1-2.5,2.5-2.5h3V5.5z"></path></g>
<g transform="translate(679.25,393.25) scale(4.4633333333333)"><rect y="0.5" width="6" height="5"></rect></g>
<g transform="translate(705.25,393.25) scale(4.4633333333333)"><path d="M3,5.5H0v-5h3c1.4,0,2.5,1.1,2.5,2.5v0C5.5,4.4,4.4,5.5,3,5.5z"></path></g>
<g transform="translate(783.25,393.25) scale(4.4633333333333)"><circle cx="3" cy="3" r="2.5"></circle></g>
<g transform="translate(861.25,393.25) scale(4.4633333333333)"><path d="M6,5.5H3C1.6,5.5,0.5,4.4,0.5,3v0c0-1.4,1.1-2.5,2.5-2.5h3V5.5z"></path></g>
<g transform="translate(887.25,393.25) scale(4.4633333333333)"><rect y="0.5" width="6" height="5"></rect></g>
<g transform="translate(913.25,393.25) scale(4.4633333333333)"><rect y="0.5" width="6" height="5"></rect></g>
<g transform="translate(939.25,393.25) scale(4.4633333333333)"><path d="M3,5.5H0v-5h3c1.4,0,2.5,1.1,2.5,2.5v0C5.5,4.4,4.4,5.5,3,5.5z"></path></g>
<g transform="translate(159.25,419.25) scale(4.4633333333333)"><path d="M6,5.5H3C1.6,5.5,0.5,4.4,0.5,3v0c0-1.4,1.1-2.5,2.5-2.5h3V5.5z"></path></g>
<g transform="translate(185.25,419.25) scale(4.4633333333333)"><rect y="0.5" width="6" height="5"></rect></g>
<g transform="translate(211.25,419.25) scale(4.4633333333333)"><rect y="0.5" width="6" height="5"></rect></g>
<g transform="translate(237.25,419.25) scale(4.4633333333333)"><rect y="0.5" width="6" height="5"></rect></g>
<g transform="translate(263.25,419.25) scale(4.4633333333333)"><path d="M3,5.5H0v-5h3c1.4,0,2.5,1.1,2.5,2.5v0C5.5,4.4,4.4,5.5,3,5.5z"></path></g>
<g transform="translate(315.25,419.25) scale(4.4633333333333)"><circle cx="3" cy="3" r="2.5"></circle></g>
<g transform="translate(393.25,419.25) scale(4.4633333333333)"><circle cx="3" cy="3" r="2.5"></circle></g>
<g transform="translate(445.25,419.25) scale(4.4633333333333)"><path d="M6,5.5H3C1.6,5.5,0.5,4.4,0.5,3v0c0-1.4,1.1-2.5,2.5-2.5h3V5.5z"></path></g>
<g transform="translate(471.25,419.25) scale(4.4633333333333)"><path d="M3,5.5H0v-5h3c1.4,0,2.5,1.1,2.5,2.5v0C5.5,4.4,4.4,5.5,3,5.5z"></path></g>
<g transform="translate(523.25,419.25) scale(4.4633333333333)"><circle cx="3" cy="3" r="2.5"></circle></g>
<g transform="translate(575.25,419.25) scale(4.4633333333333)"><circle cx="3" cy="3" r="2.5"></circle></g>
<g transform="translate(653.25,419.25) scale(4.4633333333333)"><circle cx="3" cy="3" r="2.5"></circle></g>
<g transform="translate(731.25,419.25) scale(4.4633333333333)"><path d="M6,5.5H3C1.6,5.5,0.5,4.4,0.5,3v0c0-1.4,1.1-2.5,2.5-2.5h3V5.5z"></path></g>
<g transform="translate(757.25,419.25) scale(4.4633333333333)"><path d="M3,5.5H0v-5h3c1.4,0,2.5,1.1,2.5,2.5v0C5.5,4.4,4.4,5.5,3,5.5z"></path></g>
<g transform="translate(809.25,419.25) scale(4.4633333333333)"><path d="M6,5.5H3C1.6,5.5,0.5,4.4,0.5,3v0c0-1.4,1.1-2.5,2.5-2.5h3V5.5z"></path></g>
<g transform="translate(835.25,419.25) scale(4.4633333333333)"><path d="M3,5.5H0v-5h3c1.4,0,2.5,1.1,2.5,2.5v0C5.5,4.4,4.4,5.5,3,5.5z"></path></g>
<g transform="translate(133.25,445.25) scale(4.4633333333333)"><circle cx="3" cy="3" r="2.5"></circle></g>
<g transform="translate(185.25,445.25) scale(4.4633333333333)"><path d="M6,5.5H3C1.6,5.5,0.5,4.4,0.5,3v0c0-1.4,1.1-2.5,2.5-2.5h3V5.5z"></path></g>
<g transform="translate(211.25,445.25) scale(4.4633333333333)"><path d="M3,5.5H0v-5h3c1.4,0,2.5,1.1,2.5,2.5v0C5.5,4.4,4.4,5.5,3,5.5z"></path></g>
<g transform="translate(289.25,445.25) scale(4.4633333333333)"><path d="M6,5.5H3C1.6,5.5,0.5,4.4,0.5,3v0c0-1.4,1.1-2.5,2.5-2.5h3V5.5z"></path></g>
<g transform="translate(315.25,445.25) scale(4.4633333333333)"><rect y="0.5" width="6" height="5"></rect></g>
<g transform="translate(341.25,445.25) scale(4.4633333333333)"><rect y="0.5" width="6" height="5"></rect></g>
<g transform="translate(367.25,445.25) scale(4.4633333333333)"><rect y="0.5" width="6" height="5"></rect></g>
<g transform="translate(393.25,445.25) scale(4.4633333333333)"><path d="M3,5.5H0v-5h3c1.4,0,2.5,1.1,2.5,2.5v0C5.5,4.4,4.4,5.5,3,5.5z"></path></g>
<g transform="translate(471.25,445.25) scale(4.4633333333333)"><path d="M6,5.5H3C1.6,5.5,0.5,4.4,0.5,3v0c0-1.4,1.1-2.5,2.5-2.5h3V5.5z"></path></g>
<g transform="translate(497.25,445.25) scale(4.4633333333333)"><path d="M3,5.5H0v-5h3c1.4,0,2.5,1.1,2.5,2.5v0C5.5,4.4,4.4,5.5,3,5.5z"></path></g>
<g transform="translate(601.25,445.25) scale(4.4633333333333)"><circle cx="3" cy="3" r="2.5"></circle></g>
<g transform="translate(705.25,445.25) scale(4.4633333333333)"><circle cx="3" cy="3" r="2.5"></circle></g>
<g transform="translate(783.25,445.25) scale(4.4633333333333)"><circle cx="3" cy="3" r="2.5"></circle></g>
<g transform="translate(861.25,445.25) scale(4.4633333333333)"><path d="M6,5.5H3C1.6,5.5,0.5,4.4,0.5,3v0c0-1.4,1.1-2.5,2.5-2.5h3V5.5z"></path></g>
<g transform="translate(887.25,445.25) scale(4.4633333333333)"><path d="M3,5.5H0v-5h3c1.4,0,2.5,1.1,2.5,2.5v0C5.5,4.4,4.4,5.5,3,5.5z"></path></g>
<g transform="translate(939.25,445.25) scale(4.4633333333333)"><circle cx="3" cy="3" r="2.5"></circle></g>
<g transform="translate(133.25,471.25) scale(4.4633333333333)"><path d="M6,5.5H3C1.6,5.5,0.5,4.4,0.5,3v0c0-1.4,1.1-2.5,2.5-2.5h3V5.5z"></path></g>
<g transform="translate(159.25,471.25) scale(4.4633333333333)"><path d="M3,5.5H0v-5h3c1.4,0,2.5,1.1,2.5,2.5v0C5.5,4.4,4.4,5.5,3,5.5z"></path></g>
<g transform="translate(237.25,471.25) scale(4.4633333333333)"><path d="M6,5.5H3C1.6,5.5,0.5,4.4,0.5,3v0c0-1.4,1.1-2.5,2.5-2.5h3V5.5z"></path></g>
<g transform="translate(263.25,471.25) scale(4.4633333333333)"><path d="M3,5.5H0v-5h3c1.4,0,2.5,1.1,2.5,2.5v0C5.5,4.4,4.4,5.5,3,5.5z"></path></g>
<g transform="translate(341.25,471.25) scale(4.4633333333333)"><circle cx="3" cy="3" r="2.5"></circle></g>
<g transform="translate(445.25,471.25) scale(4.4633333333333)"><path d="M6,5.5H3C1.6,5.5,0.5,4.4,0.5,3v0c0-1.4,1.1-2.5,2.5-2.5h3V5.5z"></path></g>
<g transform="translate(471.25,471.25) scale(4.4633333333333)"><rect y="0.5" width="6" height="5"></rect></g>
<g transform="translate(497.25,471.25) scale(4.4633333333333)"><rect y="0.5" width="6" height="5"></rect></g>
<g transform="translate(523.25,471.25) scale(4.4633333333333)"><path d="M3,5.5H0v-5h3c1.4,0,2.5,1.1,2.5,2.5v0C5.5,4.4,4.4,5.5,3,5.5z"></path></g>
<g transform="translate(575.25,471.25) scale(4.4633333333333)"><circle cx="3" cy="3" r="2.5"></circle></g>
<g transform="translate(679.25,471.25) scale(4.4633333333333)"><circle cx="3" cy="3" r="2.5"></circle></g>
<g transform="translate(809.25,471.25) scale(4.4633333333333)"><path d="M6,5.5H3C1.6,5.5,0.5,4.4,0.5,3v0c0-1.4,1.1-2.5,2.5-2.5h3V5.5z"></path></g>
<g transform="translate(835.25,471.25) scale(4.4633333333333)"><rect y="0.5" width="6" height="5"></rect></g>
<g transform="translate(861.25,471.25) scale(4.4633333333333)"><rect y="0.5" width="6" height="5"></rect></g>
<g transform="translate(887.25,471.25) scale(4.4633333333333)"><rect y="0.5" width="6" height="5"></rect></g>
<g transform="translate(913.25,471.25) scale(4.4633333333333)"><path d="M3,5.5H0v-5h3c1.4,0,2.5,1.1,2.5,2.5v0C5.5,4.4,4.4,5.5,3,5.5z"></path></g>
<g transform="translate(107.25,497.25) scale(4.4633333333333)"><circle cx="3" cy="3" r="2.5"></circle></g>
<g transform="translate(185.25,497.25) scale(4.4633333333333)"><circle cx="3" cy="3" r="2.5"></circle></g>
<g transform="translate(237.25,497.25) scale(4.4633333333333)"><circle cx="3" cy="3" r="2.5"></circle></g>
<g transform="translate(315.25,497.25) scale(4.4633333333333)"><path d="M6,5.5H3C1.6,5.5,0.5,4.4,0.5,3v0c0-1.4,1.1-2.5,2.5-2.5h3V5.5z"></path></g>
<g transform="translate(341.25,497.25) scale(4.4633333333333)"><rect y="0.5" width="6" height="5"></rect></g>
<g transform="translate(367.25,497.25) scale(4.4633333333333)"><rect y="0.5" width="6" height="5"></rect></g>
<g transform="translate(393.25,497.25) scale(4.4633333333333)"><path d="M3,5.5H0v-5h3c1.4,0,2.5,1.1,2.5,2.5v0C5.5,4.4,4.4,5.5,3,5.5z"></path></g>
<g transform="translate(471.25,497.25) scale(4.4633333333333)"><circle cx="3" cy="3" r="2.5"></circle></g>
<g transform="translate(549.25,497.25) scale(4.4633333333333)"><path d="M6,5.5H3C1.6,5.5,0.5,4.4,0.5,3v0c0-1.4,1.1-2.5,2.5-2.5h3V5.5z"></path></g>
<g transform="translate(575.25,497.25) scale(4.4633333333333)"><rect y="0.5" width="6" height="5"></rect></g>
<g transform="translate(601.25,497.25) scale(4.4633333333333)"><path d="M3,5.5H0v-5h3c1.4,0,2.5,1.1,2.5,2.5v0C5.5,4.4,4.4,5.5,3,5.5z"></path></g>
<g transform="translate(653.25,497.25) scale(4.4633333333333)"><path d="M6,5.5H3C1.6,5.5,0.5,4.4,0.5,3v0c0-1.4,1.1-2.5,2.5-2.5h3V5.5z"></path></g>
<g transform="translate(679.25,497.25) scale(4.4633333333333)"><path d="M3,5.5H0v-5h3c1.4,0,2.5,1.1,2.5,2.5v0C5.5,4.4,4.4,5.5,3,5.5z"></path></g>
<g transform="translate(731.25,497.25) scale(4.4633333333333)"><path d="M6,5.5H3C1.6,5.5,0.5,4.4,0.5,3v0c0-1.4,1.1-2.5,2.5-2.5h3V5.5z"></path></g>
<g transform="translate(757.25,497.25) scale(4.4633333333333)"><path d="M3,5.5H0v-5h3c1.4,0,2.5,1.1,2.5,2.5v0C5.5,4.4,4.4,5.5,3,5.5z"></path></g>
<g transform="translate(835.25,497.25) scale(4.4633333333333)"><path d="M6,5.5H3C1.6,5.5,0.5,4.4,0.5,3v0c0-1.4,1.1-2.5,2.5-2.5h3V5.5z"></path></g>
<g transform="translate(861.25,497.25) scale(4.4633333333333)"><rect y="0.5" width="6" height="5"></rect></g>
<g transform="translate(887.25,497.25) scale(4.4633333333333)"><rect y="0.5" width="6" height="5"></rect></g>
<g transform="translate(913.25,497.25) scale(4.4633333333333)"><path d="M3,5.5H0v-5h3c1.4,0,2.5,1.1,2.5,2.5v0C5.5,4.4,4.4,5.5,3,5.5z"></path></g>
<g transform="translate(107.25,523.25) scale(4.4633333333333)"><path d="M6,5.5H3C1.6,5.5,0.5,4.4,0.5,3v0c0-1.4,1.1-2.5,2.5-2.5h3V5.5z"></path></g>
<g transform="translate(133.25,523.25) scale(4.4633333333333)"><rect y="0.5" width="6" height="5"></rect></g>
<g transform="translate(159.25,523.25) scale(4.4633333333333)"><rect y="0.5" width="6" height="5"></rect></g>
<g transform="translate(185.25,523.25) scale(4.4633333333333)"><path d="M3,5.5H0v-5h3c1.4,0,2.5,1.1,2.5,2.5v0C5.5,4.4,4.4,5.5,3,5.5z"></path></g>
<g transform="translate(237.25,523.25) scale(4.4633333333333)"><path d="M6,5.5H3C1.6,5.5,0.5,4.4,0.5,3v0c0-1.4,1.1-2.5,2.5-2.5h3V5.5z"></path></g>
<g transform="translate(263.25,523.25) scale(4.4633333333333)"><path d="M3,5.5H0v-5h3c1.4,0,2.5,1.1,2.5,2.5v0C5.5,4.4,4.4,5.5,3,5.5z"></path></g>
<g transform="translate(367.25,523.25) scale(4.4633333333333)"><circle cx="3" cy="3" r="2.5"></circle></g>
<g transform="translate(445.25,523.25) scale(4.4633333333333)"><path d="M6,5.5H3C1.6,5.5,0.5,4.4,0.5,3v0c0-1.4,1.1-2.5,2.5-2.5h3V5.5z"></path></g>
<g transform="translate(471.25,523.25) scale(4.4633333333333)"><path d="M3,5.5H0v-5h3c1.4,0,2.5,1.1,2.5,2.5v0C5.5,4.4,4.4,5.5,3,5.5z"></path></g>
<g transform="translate(523.25,523.25) scale(4.4633333333333)"><circle cx="3" cy="3" r="2.5"></circle></g>
<g transform="translate(575.25,523.25) scale(4.4633333333333)"><circle cx="3" cy="3" r="2.5"></circle></g>
<g transform="translate(705.25,523.25) scale(4.4633333333333)"><circle cx="3" cy="3" r="2.5"></circle></g>
<g transform="translate(809.25,523.25) scale(4.4633333333333)"><path d="M6,5.5H3C1.6,5.5,0.5,4.4,0.5,3v0c0-1.4,1.1-2.5,2.5-2.5h3V5.5z"></path></g>
<g transform="translate(835.25,523.25) scale(4.4633333333333)"><path d="M3,5.5H0v-5h3c1.4,0,2.5,1.1,2.5,2.5v0C5.5,4.4,4.4,5.5,3,5.5z"></path></g>
<g transform="translate(133.25,549.25) scale(4.4633333333333)"><circle cx="3" cy="3" r="2.5"></circle></g>
<g transform="translate(185.25,549.25) scale(4.4633333333333)"><circle cx="3" cy="3" r="2.5"></circle></g>
<g transform="translate(341.25,549.25) scale(4.4633333333333)"><circle cx="3" cy="3" r="2.5"></circle></g>
<g transform="translate(445.25,549.25) scale(4.4633333333333)"><path d="M6,5.5H3C1.6,5.5,0.5,4.4,0.5,3v0c0-1.4,1.1-2.5,2.5-2.5h3V5.5z"></path></g>
<g transform="translate(471.25,549.25) scale(4.4633333333333)"><path d="M3,5.5H0v-5h3c1.4,0,2.5,1.1,2.5,2.5v0C5.5,4.4,4.4,5.5,3,5.5z"></path></g>
<g transform="translate(523.25,549.25) scale(4.4633333333333)"><circle cx="3" cy="3" r="2.5"></circle></g>
<g transform="translate(575.25,549.25) scale(4.4633333333333)"><path d="M6,5.5H3C1.6,5.5,0.5,4.4,0.5,3v0c0-1.4,1.1-2.5,2.5-2.5h3V5.5z"></path></g>
<g transform="translate(601.25,549.25) scale(4.4633333333333)"><path d="M3,5.5H0v-5h3c1.4,0,2.5,1.1,2.5,2.5v0C5.5,4.4,4.4,5.5,3,5.5z"></path></g>
<g transform="translate(653.25,549.25) scale(4.4633333333333)"><circle cx="3" cy="3" r="2.5"></circle></g>
<g transform="translate(705.25,549.25) scale(4.4633333333333)"><path d="M6,5.5H3C1.6,5.5,0.5,4.4,0.5,3v0c0-1.4,1.1-2.5,2.5-2.5h3V5.5z"></path></g>
<g transform="translate(731.25,549.25) scale(4.4633333333333)"><path d="M3,5.5H0v-5h3c1.4,0,2.5,1.1,2.5,2.5v0C5.5,4.4,4.4,5.5,3,5.5z"></path></g>
<g transform="translate(783.25,549.25) scale(4.4633333333333)"><circle cx="3" cy="3" r="2.5"></circle></g>
<g transform="translate(939.25,549.25) scale(4.4633333333333)"><circle cx="3" cy="3" r="2.5"></circle></g>
<g transform="translate(107.25,575.25) scale(4.4633333333333)"><path d="M6,5.5H3C1.6,5.5,0.5,4.4,0.5,3v0c0-1.4,1.1-2.5,2.5-2.5h3V5.5z"></path></g>
<g transform="translate(133.25,575.25) scale(4.4633333333333)"><path d="M3,5.5H0v-5h3c1.4,0,2.5,1.1,2.5,2.5v0C5.5,4.4,4.4,5.5,3,5.5z"></path></g>
<g transform="translate(185.25,575.25) scale(4.4633333333333)"><path d="M6,5.5H3C1.6,5.5,0.5,4.4,0.5,3v0c0-1.4,1.1-2.5,2.5-2.5h3V5.5z"></path></g>
<g transform="translate(211.25,575.25) scale(4.4633333333333)"><path d="M3,5.5H0v-5h3c1.4,0,2.5,1.1,2.5,2.5v0C5.5,4.4,4.4,5.5,3,5.5z"></path></g>
<g transform="translate(263.25,575.25) scale(4.4633333333333)"><circle cx="3" cy="3" r="2.5"></circle></g>
<g transform="translate(315.25,575.25) scale(4.4633333333333)"><path d="M6,5.5H3C1.6,5.5,0.5,4.4,0.5,3v0c0-1.4,1.1-2.5,2.5-2.5h3V5.5z"></path></g>
<g transform="translate(341.25,575.25) scale(4.4633333333333)"><path d="M3,5.5H0v-5h3c1.4,0,2.5,1.1,2.5,2.5v0C5.5,4.4,4.4,5.5,3,5.5z"></path></g>
<g transform="translate(419.25,575.25) scale(4.4633333333333)"><circle cx="3" cy="3" r="2.5"></circle></g>
<g transform="translate(497.25,575.25) scale(4.4633333333333)"><circle cx="3" cy="3" r="2.5"></circle></g>
<g transform="translate(627.25,575.25) scale(4.4633333333333)"><path d="M6,5.5H3C1.6,5.5,0.5,4.4,0.5,3v0c0-1.4,1.1-2.5,2.5-2.5h3V5.5z"></path></g>
<g transform="translate(653.25,575.25) scale(4.4633333333333)"><rect y="0.5" width="6" height="5"></rect></g>
<g transform="translate(679.25,575.25) scale(4.4633333333333)"><path d="M3,5.5H0v-5h3c1.4,0,2.5,1.1,2.5,2.5v0C5.5,4.4,4.4,5.5,3,5.5z"></path></g>
<g transform="translate(809.25,575.25) scale(4.4633333333333)"><circle cx="3" cy="3" r="2.5"></circle></g>
<g transform="translate(887.25,575.25) scale(4.4633333333333)"><path d="M6,5.5H3C1.6,5.5,0.5,4.4,0.5,3v0c0-1.4,1.1-2.5,2.5-2.5h3V5.5z"></path></g>
<g transform="translate(913.25,575.25) scale(4.4633333333333)"><path d="M3,5.5H0v-5h3c1.4,0,2.5,1.1,2.5,2.5v0C5.5,4.4,4.4,5.5,3,5.5z"></path></g>
<g transform="translate(107.25,601.25) scale(4.4633333333333)"><path d="M6,5.5H3C1.6,5.5,0.5,4.4,0.5,3v0c0-1.4,1.1-2.5,2.5-2.5h3V5.5z"></path></g>
<g transform="translate(133.25,601.25) scale(4.4633333333333)"><path d="M3,5.5H0v-5h3c1.4,0,2.5,1.1,2.5,2.5v0C5.5,4.4,4.4,5.5,3,5.5z"></path></g>
<g transform="translate(185.25,601.25) scale(4.4633333333333)"><path d="M6,5.5H3C1.6,5.5,0.5,4.4,0.5,3v0c0-1.4,1.1-2.5,2.5-2.5h3V5.5z"></path></g>
<g transform="translate(211.25,601.25) scale(4.4633333333333)"><path d="M3,5.5H0v-5h3c1.4,0,2.5,1.1,2.5,2.5v0C5.5,4.4,4.4,5.5,3,5.5z"></path></g>
<g transform="translate(419.25,601.25) scale(4.4633333333333)"><path d="M6,5.5H3C1.6,5.5,0.5,4.4,0.5,3v0c0-1.4,1.1-2.5,2.5-2.5h3V5.5z"></path></g>
<g transform="translate(445.25,601.25) scale(4.4633333333333)"><path d="M3,5.5H0v-5h3c1.4,0,2.5,1.1,2.5,2.5v0C5.5,4.4,4.4,5.5,3,5.5z"></path></g>
<g transform="translate(549.25,601.25) scale(4.4633333333333)"><path d="M6,5.5H3C1.6,5.5,0.5,4.4,0.5,3v0c0-1.4,1.1-2.5,2.5-2.5h3V5.5z"></path></g>
<g transform="translate(575.25,601.25) scale(4.4633333333333)"><rect y="0.5" width="6" height="5"></rect></g>
<g transform="translate(601.25,601.25) scale(4.4633333333333)"><rect y="0.5" width="6" height="5"></rect></g>
<g transform="translate(627.25,601.25) scale(4.4633333333333)"><rect y="0.5" width="6" height="5"></rect></g>
<g transform="translate(653.25,601.25) scale(4.4633333333333)"><rect y="0.5" width="6" height="5"></rect></g>
<g transform="translate(679.25,601.25) scale(4.4633333333333)"><rect y="0.5" width="6" height="5"></rect></g>
<g transform="translate(705.25,601.25) scale(4.4633333333333)"><rect y="0.5" width="6" height="5"></rect></g>
<g transform="translate(731.25,601.25) scale(4.4633333333333)"><rect y="0.5" width="6" height="5"></rect></g>
<g transform="translate(757.25,601.25) scale(4.4633333333333)"><path d="M3,5.5H0v-5h3c1.4,0,2.5,1.1,2.5,2.5v0C5.5,4.4,4.4,5.5,3,5.5z"></path></g>
<g transform="translate(861.25,601.25) scale(4.4633333333333)"><path d="M6,5.5H3C1.6,5.5,0.5,4.4,0.5,3v0c0-1.4,1.1-2.5,2.5-2.5h3V5.5z"></path></g>
<g transform="translate(887.25,601.25) scale(4.4633333333333)"><rect y="0.5" width="6" height="5"></rect></g>
<g transform="translate(913.25,601.25) scale(4.4633333333333)"><rect y="0.5" width="6" height="5"></rect></g>
<g transform="translate(939.25,601.25) scale(4.4633333333333)"><path d="M3,5.5H0v-5h3c1.4,0,2.5,1.1,2.5,2.5v0C5.5,4.4,4.4,5.5,3,5.5z"></path></g>
<g transform="translate(107.25,627.25) scale(4.4633333333333)"><circle cx="3" cy="3" r="2.5"></circle></g>
<g transform="translate(237.25,627.25) scale(4.4633333333333)"><path d="M6,5.5H3C1.6,5.5,0.5,4.4,0.5,3v0c0-1.4,1.1-2.5,2.5-2.5h3V5.5z"></path></g>
<g transform="translate(263.25,627.25) scale(4.4633333333333)"><path d="M3,5.5H0v-5h3c1.4,0,2.5,1.1,2.5,2.5v0C5.5,4.4,4.4,5.5,3,5.5z"></path></g>
<g transform="translate(367.25,627.25) scale(4.4633333333333)"><path d="M6,5.5H3C1.6,5.5,0.5,4.4,0.5,3v0c0-1.4,1.1-2.5,2.5-2.5h3V5.5z"></path></g>
<g transform="translate(393.25,627.25) scale(4.4633333333333)"><path d="M3,5.5H0v-5h3c1.4,0,2.5,1.1,2.5,2.5v0C5.5,4.4,4.4,5.5,3,5.5z"></path></g>
<g transform="translate(445.25,627.25) scale(4.4633333333333)"><path d="M6,5.5H3C1.6,5.5,0.5,4.4,0.5,3v0c0-1.4,1.1-2.5,2.5-2.5h3V5.5z"></path></g>
<g transform="translate(471.25,627.25) scale(4.4633333333333)"><rect y="0.5" width="6" height="5"></rect></g>
<g transform="translate(497.25,627.25) scale(4.4633333333333)"><path d="M3,5.5H0v-5h3c1.4,0,2.5,1.1,2.5,2.5v0C5.5,4.4,4.4,5.5,3,5.5z"></path></g>
<g transform="translate(575.25,627.25) scale(4.4633333333333)"><path d="M6,5.5H3C1.6,5.5,0.5,4.4,0.5,3v0c0-1.4,1.1-2.5,2.5-2.5h3V5.5z"></path></g>
<g transform="translate(601.25,627.25) scale(4.4633333333333)"><rect y="0.5" width="6" height="5"></rect></g>
<g transform="translate(627.25,627.25) scale(4.4633333333333)"><path d="M3,5.5H0v-5h3c1.4,0,2.5,1.1,2.5,2.5v0C5.5,4.4,4.4,5.5,3,5.5z"></path></g>
<g transform="translate(679.25,627.25) scale(4.4633333333333)"><circle cx="3" cy="3" r="2.5"></circle></g>
<g transform="translate(757.25,627.25) scale(4.4633333333333)"><circle cx="3" cy="3" r="2.5"></circle></g>
<g transform="translate(835.25,627.25) scale(4.4633333333333)"><path d="M6,5.5H3C1.6,5.5,0.5,4.4,0.5,3v0c0-1.4,1.1-2.5,2.5-2.5h3V5.5z"></path></g>
<g transform="translate(861.25,627.25) scale(4.4633333333333)"><path d="M3,5.5H0v-5h3c1.4,0,2.5,1.1,2.5,2.5v0C5.5,4.4,4.4,5.5,3,5.5z"></path></g>
<g transform="translate(107.25,653.25) scale(4.4633333333333)"><path d="M6,5.5H3C1.6,5.5,0.5,4.4,0.5,3v0c0-1.4,1.1-2.5,2.5-2.5h3V5.5z"></path></g>
<g transform="translate(133.25,653.25) scale(4.4633333333333)"><rect y="0.5" width="6" height="5"></rect></g>
<g transform="translate(159.25,653.25) scale(4.4633333333333)"><rect y="0.5" width="6" height="5"></rect></g>
<g transform="translate(185.25,653.25) scale(4.4633333333333)"><path d="M3,5.5H0v-5h3c1.4,0,2.5,1.1,2.5,2.5v0C5.5,4.4,4.4,5.5,3,5.5z"></path></g>
<g transform="translate(289.25,653.25) scale(4.4633333333333)"><circle cx="3" cy="3" r="2.5"></circle></g>
<g transform="translate(341.25,653.25) scale(4.4633333333333)"><path d="M6,5.5H3C1.6,5.5,0.5,4.4,0.5,3v0c0-1.4,1.1-2.5,2.5-2.5h3V5.5z"></path></g>
<g transform="translate(367.25,653.25) scale(4.4633333333333)"><rect y="0.5" width="6" height="5"></rect></g>
<g transform="translate(393.25,653.25) scale(4.4633333333333)"><path d="M3,5.5H0v-5h3c1.4,0,2.5,1.1,2.5,2.5v0C5.5,4.4,4.4,5.5,3,5.5z"></path></g>
<g transform="translate(471.25,653.25) scale(4.4633333333333)"><circle cx="3" cy="3" r="2.5"></circle></g>
<g transform="translate(523.25,653.25) scale(4.4633333333333)"><path d="M6,5.5H3C1.6,5.5,0.5,4.4,0.5,3v0c0-1.4,1.1-2.5,2.5-2.5h3V5.5z"></path></g>
<g transform="translate(549.25,653.25) scale(4.4633333333333)"><rect y="0.5" width="6" height="5"></rect></g>
<g transform="translate(575.25,653.25) scale(4.4633333333333)"><rect y="0.5" width="6" height="5"></rect></g>
<g transform="translate(601.25,653.25) scale(4.4633333333333)"><path d="M3,5.5H0v-5h3c1.4,0,2.5,1.1,2.5,2.5v0C5.5,4.4,4.4,5.5,3,5.5z"></path></g>
<g transform="translate(653.25,653.25) scale(4.4633333333333)"><circle cx="3" cy="3" r="2.5"></circle></g>
<g transform="translate(705.25,653.25) scale(4.4633333333333)"><circle cx="3" cy="3" r="2.5"></circle></g>
<g transform="translate(757.25,653.25) scale(4.4633333333333)"><path d="M6,5.5H3C1.6,5.5,0.5,4.4,0.5,3v0c0-1.4,1.1-2.5,2.5-2.5h3V5.5z"></path></g>
<g transform="translate(783.25,653.25) scale(4.4633333333333)"><path d="M3,5.5H0v-5h3c1.4,0,2.5,1.1,2.5,2.5v0C5.5,4.4,4.4,5.5,3,5.5z"></path></g>
<g transform="translate(861.25,653.25) scale(4.4633333333333)"><path d="M6,5.5H3C1.6,5.5,0.5,4.4,0.5,3v0c0-1.4,1.1-2.5,2.5-2.5h3V5.5z"></path></g>
<g transform="translate(887.25,653.25) scale(4.4633333333333)"><path d="M3,5.5H0v-5h3c1.4,0,2.5,1.1,2.5,2.5v0C5.5,4.4,4.4,5.5,3,5.5z"></path></g>
<g transform="translate(939.25,653.25) scale(4.4633333333333)"><circle cx="3" cy="3" r="2.5"></circle></g>
<g transform="translate(107.25,679.25) scale(4.4633333333333)"><circle cx="3" cy="3" r="2.5"></circle></g>
<g transform="translate(159.25,679.25) scale(4.4633333333333)"><circle cx="3" cy="3" r="2.5"></circle></g>
<g transform="translate(237.25,679.25) scale(4.4633333333333)"><path d="M6,5.5H3C1.6,5.5,0.5,4.4,0.5,3v0c0-1.4,1.1-2.5,2.5-2.5h3V5.5z"></path></g>
<g transform="translate(263.25,679.25) scale(4.4633333333333)"><path d="M3,5.5H0v-5h3c1.4,0,2.5,1.1,2.5,2.5v0C5.5,4.4,4.4,5.5,3,5.5z"></path></g>
<g transform="translate(315.25,679.25) scale(4.4633333333333)"><path d="M6,5.5H3C1.6,5.5,0.5,4.4,0.5,3v0c0-1.4,1.1-2.5,2.5-2.5h3V5.5z"></path></g>
<g transform="translate(341.25,679.25) scale(4.4633333333333)"><rect y="0.5" width="6" height="5"></rect></g>
<g transform="translate(367.25,679.25) scale(4.4633333333333)"><path d="M3,5.5H0v-5h3c1.4,0,2.5,1.1,2.5,2.5v0C5.5,4.4,4.4,5.5,3,5.5z"></path></g>
<g transform="translate(419.25,679.25) scale(4.4633333333333)"><circle cx="3" cy="3" r="2.5"></circle></g>
<g transform="translate(471.25,679.25) scale(4.4633333333333)"><circle cx="3" cy="3" r="2.5"></circle></g>
<g transform="translate(575.25,679.25) scale(4.4633333333333)"><circle cx="3" cy="3" r="2.5"></circle></g>
<g transform="translate(731.25,679.25) scale(4.4633333333333)"><circle cx="3" cy="3" r="2.5"></circle></g>
<g transform="translate(809.25,679.25) scale(4.4633333333333)"><path d="M6,5.5H3C1.6,5.5,0.5,4.4,0.5,3v0c0-1.4,1.1-2.5,2.5-2.5h3V5.5z"></path></g>
<g transform="translate(835.25,679.25) scale(4.4633333333333)"><rect y="0.5" width="6" height="5"></rect></g>
<g transform="translate(861.25,679.25) scale(4.4633333333333)"><rect y="0.5" width="6" height="5"></rect></g>
<g transform="translate(887.25,679.25) scale(4.4633333333333)"><path d="M3,5.5H0v-5h3c1.4,0,2.5,1.1,2.5,2.5v0C5.5,4.4,4.4,5.5,3,5.5z"></path></g>
<g transform="translate(107.25,705.25) scale(4.4633333333333)"><circle cx="3" cy="3" r="2.5"></circle></g>
<g transform="translate(159.25,705.25) scale(4.4633333333333)"><path d="M6,5.5H3C1.6,5.5,0.5,4.4,0.5,3v0c0-1.4,1.1-2.5,2.5-2.5h3V5.5z"></path></g>
<g transform="translate(185.25,705.25) scale(4.4633333333333)"><rect y="0.5" width="6" height="5"></rect></g>
<g transform="translate(211.25,705.25) scale(4.4633333333333)"><path d="M3,5.5H0v-5h3c1.4,0,2.5,1.1,2.5,2.5v0C5.5,4.4,4.4,5.5,3,5.5z"></path></g>
<g transform="translate(315.25,705.25) scale(4.4633333333333)"><circle cx="3" cy="3" r="2.5"></circle></g>
<g transform="translate(367.25,705.25) scale(4.4633333333333)"><circle cx="3" cy="3" r="2.5"></circle></g>
<g transform="translate(471.25,705.25) scale(4.4633333333333)"><path d="M6,5.5H3C1.6,5.5,0.5,4.4,0.5,3v0c0-1.4,1.1-2.5,2.5-2.5h3V5.5z"></path></g>
<g transform="translate(497.25,705.25) scale(4.4633333333333)"><path d="M3,5.5H0v-5h3c1.4,0,2.5,1.1,2.5,2.5v0C5.5,4.4,4.4,5.5,3,5.5z"></path></g>
<g transform="translate(549.25,705.25) scale(4.4633333333333)"><circle cx="3" cy="3" r="2.5"></circle></g>
<g transform="translate(601.25,705.25) scale(4.4633333333333)"><path d="M6,5.5H3C1.6,5.5,0.5,4.4,0.5,3v0c0-1.4,1.1-2.5,2.5-2.5h3V5.5z"></path></g>
<g transform="translate(627.25,705.25) scale(4.4633333333333)"><rect y="0.5" width="6" height="5"></rect></g>
<g transform="translate(653.25,705.25) scale(4.4633333333333)"><path d="M3,5.5H0v-5h3c1.4,0,2.5,1.1,2.5,2.5v0C5.5,4.4,4.4,5.5,3,5.5z"></path></g>
<g transform="translate(731.25,705.25) scale(4.4633333333333)"><circle cx="3" cy="3" r="2.5"></circle></g>
<g transform="translate(809.25,705.25) scale(4.4633333333333)"><circle cx="3" cy="3" r="2.5"></circle></g>
<g transform="translate(861.25,705.25) scale(4.4633333333333)"><path d="M6,5.5H3C1.6,5.5,0.5,4.4,0.5,3v0c0-1.4,1.1-2.5,2.5-2.5h3V5.5z"></path></g>
<g transform="translate(887.25,705.25) scale(4.4633333333333)"><path d="M3,5.5H0v-5h3c1.4,0,2.5,1.1,2.5,2.5v0C5.5,4.4,4.4,5.5,3,5.5z"></path></g>
<g transform="translate(939.25,705.25) scale(4.4633333333333)"><circle cx="3" cy="3" r="2.5"></circle></g>
<g transform="translate(107.25,731.25) scale(4.4633333333333)"><circle cx="3" cy="3" r="2.5"></circle></g>
<g transform="translate(185.25,731.25) scale(4.4633333333333)"><circle cx="3" cy="3" r="2.5"></circle></g>
<g transform="translate(263.25,731.25) scale(4.4633333333333)"><path d="M6,5.5H3C1.6,5.5,0.5,4.4,0.5,3v0c0-1.4,1.1-2.5,2.5-2.5h3V5.5z"></path></g>
<g transform="translate(289.25,731.25) scale(4.4633333333333)"><rect y="0.5" width="6" height="5"></rect></g>
<g transform="translate(315.25,731.25) scale(4.4633333333333)"><path d="M3,5.5H0v-5h3c1.4,0,2.5,1.1,2.5,2.5v0C5.5,4.4,4.4,5.5,3,5.5z"></path></g>
<g transform="translate(445.25,731.25) scale(4.4633333333333)"><path d="M6,5.5H3C1.6,5.5,0.5,4.4,0.5,3v0c0-1.4,1.1-2.5,2.5-2.5h3V5.5z"></path></g>
<g transform="translate(471.25,731.25) scale(4.4633333333333)"><path d="M3,5.5H0v-5h3c1.4,0,2.5,1.1,2.5,2.5v0C5.5,4.4,4.4,5.5,3,5.5z"></path></g>
<g transform="translate(549.25,731.25) scale(4.4633333333333)"><circle cx="3" cy="3" r="2.5"></circle></g>
<g transform="translate(601.25,731.25) scale(4.4633333333333)"><circle cx="3" cy="3" r="2.5"></circle></g>
<g transform="translate(679.25,731.25) scale(4.4633333333333)"><circle cx="3" cy="3" r="2.5"></circle></g>
<g transform="translate(731.25,731.25) scale(4.4633333333333)"><path d="M6,5.5H3C1.6,5.5,0.5,4.4,0.5,3v0c0-1.4,1.1-2.5,2.5-2.5h3V5.5z"></path></g>
<g transform="translate(757.25,731.25) scale(4.4633333333333)"><rect y="0.5" width="6" height="5"></rect></g>
<g transform="translate(783.25,731.25) scale(4.4633333333333)"><rect y="0.5" width="6" height="5"></rect></g>
<g transform="translate(809.25,731.25) scale(4.4633333333333)"><rect y="0.5" width="6" height="5"></rect></g>
<g transform="translate(835.25,731.25) scale(4.4633333333333)"><rect y="0.5" width="6" height="5"></rect></g>
<g transform="translate(861.25,731.25) scale(4.4633333333333)"><path d="M3,5.5H0v-5h3c1.4,0,2.5,1.1,2.5,2.5v0C5.5,4.4,4.4,5.5,3,5.5z"></path></g>
<g transform="translate(315.25,757.25) scale(4.4633333333333)"><circle cx="3" cy="3" r="2.5"></circle></g>
<g transform="translate(393.25,757.25) scale(4.4633333333333)"><circle cx="3" cy="3" r="2.5"></circle></g>
<g transform="translate(627.25,757.25) scale(4.4633333333333)"><circle cx="3" cy="3" r="2.5"></circle></g>
<g transform="translate(705.25,757.25) scale(4.4633333333333)"><path d="M6,5.5H3C1.6,5.5,0.5,4.4,0.5,3v0c0-1.4,1.1-2.5,2.5-2.5h3V5.5z"></path></g>
<g transform="translate(731.25,757.25) scale(4.4633333333333)"><path d="M3,5.5H0v-5h3c1.4,0,2.5,1.1,2.5,2.5v0C5.5,4.4,4.4,5.5,3,5.5z"></path></g>
<g transform="translate(835.25,757.25) scale(4.4633333333333)"><path d="M6,5.5H3C1.6,5.5,0.5,4.4,0.5,3v0c0-1.4,1.1-2.5,2.5-2.5h3V5.5z"></path></g>
<g transform="translate(861.25,757.25) scale(4.4633333333333)"><rect y="0.5" width="6" height="5"></rect></g>
<g transform="translate(887.25,757.25) scale(4.4633333333333)"><rect y="0.5" width="6" height="5"></rect></g>
<g transform="translate(913.25,757.25) scale(4.4633333333333)"><rect y="0.5" width="6" height="5"></rect></g>
<g transform="translate(939.25,757.25) scale(4.4633333333333)"><path d="M3,5.5H0v-5h3c1.4,0,2.5,1.1,2.5,2.5v0C5.5,4.4,4.4,5.5,3,5.5z"></path></g>
<g transform="translate(341.25,783.25) scale(4.4633333333333)"><circle cx="3" cy="3" r="2.5"></circle></g>
<g transform="translate(419.25,783.25) scale(4.4633333333333)"><circle cx="3" cy="3" r="2.5"></circle></g>
<g transform="translate(471.25,783.25) scale(4.4633333333333)"><path d="M6,5.5H3C1.6,5.5,0.5,4.4,0.5,3v0c0-1.4,1.1-2.5,2.5-2.5h3V5.5z"></path></g>
<g transform="translate(497.25,783.25) scale(4.4633333333333)"><rect y="0.5" width="6" height="5"></rect></g>
<g transform="translate(523.25,783.25) scale(4.4633333333333)"><path d="M3,5.5H0v-5h3c1.4,0,2.5,1.1,2.5,2.5v0C5.5,4.4,4.4,5.5,3,5.5z"></path></g>
<g transform="translate(575.25,783.25) scale(4.4633333333333)"><path d="M6,5.5H3C1.6,5.5,0.5,4.4,0.5,3v0c0-1.4,1.1-2.5,2.5-2.5h3V5.5z"></path></g>
<g transform="translate(601.25,783.25) scale(4.4633333333333)"><path d="M3,5.5H0v-5h3c1.4,0,2.5,1.1,2.5,2.5v0C5.5,4.4,4.4,5.5,3,5.5z"></path></g>
<g transform="translate(679.25,783.25) scale(4.4633333333333)"><path d="M6,5.5H3C1.6,5.5,0.5,4.4,0.5,3v0c0-1.4,1.1-2.5,2.5-2.5h3V5.5z"></path></g>
<g transform="translate(705.25,783.25) scale(4.4633333333333)"><rect y="0.5" width="6" height="5"></rect></g>
<g transform="translate(731.25,783.25) scale(4.4633333333333)"><path d="M3,5.5H0v-5h3c1.4,0,2.5,1.1,2.5,2.5v0C5.5,4.4,4.4,5.5,3,5.5z"></path></g>
<g transform="translate(783.25,783.25) scale(4.4633333333333)"><circle cx="3" cy="3" r="2.5"></circle></g>
<g transform="translate(835.25,783.25) scale(4.4633333333333)"><path d="M6,5.5H3C1.6,5.5,0.5,4.4,0.5,3v0c0-1.4,1.1-2.5,2.5-2.5h3V5.5z"></path></g>
<g transform="translate(861.25,783.25) scale(4.4633333333333)"><rect y="0.5" width="6" height="5"></rect></g>
<g transform="translate(887.25,783.25) scale(4.4633333333333)"><rect y="0.5" width="6" height="5"></rect></g>
<g transform="translate(913.25,783.25) scale(4.4633333333333)"><path d="M3,5.5H0v-5h3c1.4,0,2.5,1.1,2.5,2.5v0C5.5,4.4,4.4,5.5,3,5.5z"></path></g>
<g transform="translate(367.25,809.25) scale(4.4633333333333)"><circle cx="3" cy="3" r="2.5"></circle></g>
<g transform="translate(471.25,809.25) scale(4.4633333333333)"><circle cx="3" cy="3" r="2.5"></circle></g>
<g transform="translate(523.25,809.25) scale(4.4633333333333)"><circle cx="3" cy="3" r="2.5"></circle></g>
<g transform="translate(627.25,809.25) scale(4.4633333333333)"><circle cx="3" cy="3" r="2.5"></circle></g>
<g transform="translate(705.25,809.25) scale(4.4633333333333)"><path d="M6,5.5H3C1.6,5.5,0.5,4.4,0.5,3v0c0-1.4,1.1-2.5,2.5-2.5h3V5.5z"></path></g>
<g transform="translate(731.25,809.25) scale(4.4633333333333)"><path d="M3,5.5H0v-5h3c1.4,0,2.5,1.1,2.5,2.5v0C5.5,4.4,4.4,5.5,3,5.5z"></path></g>
<g transform="translate(835.25,809.25) scale(4.4633333333333)"><path d="M6,5.5H3C1.6,5.5,0.5,4.4,0.5,3v0c0-1.4,1.1-2.5,2.5-2.5h3V5.5z"></path></g>
<g transform="translate(861.25,809.25) scale(4.4633333333333)"><rect y="0.5" width="6" height="5"></rect></g>
<g transform="translate(887.25,809.25) scale(4.4633333333333)"><rect y="0.5" width="6" height="5"></rect></g>
<g transform="translate(913.25,809.25) scale(4.4633333333333)"><rect y="0.5" width="6" height="5"></rect></g>
<g transform="translate(939.25,809.25) scale(4.4633333333333)"><path d="M3,5.5H0v-5h3c1.4,0,2.5,1.1,2.5,2.5v0C5.5,4.4,4.4,5.5,3,5.5z"></path></g>
<g transform="translate(315.25,835.25) scale(4.4633333333333)"><circle cx="3" cy="3" r="2.5"></circle></g>
<g transform="translate(393.25,835.25) scale(4.4633333333333)"><path d="M6,5.5H3C1.6,5.5,0.5,4.4,0.5,3v0c0-1.4,1.1-2.5,2.5-2.5h3V5.5z"></path></g>
<g transform="translate(419.25,835.25) scale(4.4633333333333)"><rect y="0.5" width="6" height="5"></rect></g>
<g transform="translate(445.25,835.25) scale(4.4633333333333)"><path d="M3,5.5H0v-5h3c1.4,0,2.5,1.1,2.5,2.5v0C5.5,4.4,4.4,5.5,3,5.5z"></path></g>
<g transform="translate(497.25,835.25) scale(4.4633333333333)"><path d="M6,5.5H3C1.6,5.5,0.5,4.4,0.5,3v0c0-1.4,1.1-2.5,2.5-2.5h3V5.5z"></path></g>
<g transform="translate(523.25,835.25) scale(4.4633333333333)"><rect y="0.5" width="6" height="5"></rect></g>
<g transform="translate(549.25,835.25) scale(4.4633333333333)"><path d="M3,5.5H0v-5h3c1.4,0,2.5,1.1,2.5,2.5v0C5.5,4.4,4.4,5.5,3,5.5z"></path></g>
<g transform="translate(627.25,835.25) scale(4.4633333333333)"><path d="M6,5.5H3C1.6,5.5,0.5,4.4,0.5,3v0c0-1.4,1.1-2.5,2.5-2.5h3V5.5z"></path></g>
<g transform="translate(653.25,835.25) scale(4.4633333333333)"><rect y="0.5" width="6" height="5"></rect></g>
<g transform="translate(679.25,835.25) scale(4.4633333333333)"><path d="M3,5.5H0v-5h3c1.4,0,2.5,1.1,2.5,2.5v0C5.5,4.4,4.4,5.5,3,5.5z"></path></g>
<g transform="translate(731.25,835.25) scale(4.4633333333333)"><path d="M6,5.5H3C1.6,5.5,0.5,4.4,0.5,3v0c0-1.4,1.1-2.5,2.5-2.5h3V5.5z"></path></g>
<g transform="translate(757.25,835.25) scale(4.4633333333333)"><rect y="0.5" width="6" height="5"></rect></g>
<g transform="translate(783.25,835.25) scale(4.4633333333333)"><rect y="0.5" width="6" height="5"></rect></g>
<g transform="translate(809.25,835.25) scale(4.4633333333333)"><rect y="0.5" width="6" height="5"></rect></g>
<g transform="translate(835.25,835.25) scale(4.4633333333333)"><rect y="0.5" width="6" height="5"></rect></g>
<g transform="translate(861.25,835.25) scale(4.4633333333333)"><path d="M3,5.5H0v-5h3c1.4,0,2.5,1.1,2.5,2.5v0C5.5,4.4,4.4,5.5,3,5.5z"></path></g>
<g transform="translate(913.25,835.25) scale(4.4633333333333)"><path d="M6,5.5H3C1.6,5.5,0.5,4.4,0.5,3v0c0-1.4,1.1-2.5,2.5-2.5h3V5.5z"></path></g>
<g transform="translate(939.25,835.25) scale(4.4633333333333)"><path d="M3,5.5H0v-5h3c1.4,0,2.5,1.1,2.5,2.5v0C5.5,4.4,4.4,5.5,3,5.5z"></path></g>
<g transform="translate(315.25,861.25) scale(4.4633333333333)"><path d="M6,5.5H3C1.6,5.5,0.5,4.4,0.5,3v0c0-1.4,1.1-2.5,2.5-2.5h3V5.5z"></path></g>
<g transform="translate(341.25,861.25) scale(4.4633333333333)"><path d="M3,5.5H0v-5h3c1.4,0,2.5,1.1,2.5,2.5v0C5.5,4.4,4.4,5.5,3,5.5z"></path></g>
<g transform="translate(393.25,861.25) scale(4.4633333333333)"><path d="M6,5.5H3C1.6,5.5,0.5,4.4,0.5,3v0c0-1.4,1.1-2.5,2.5-2.5h3V5.5z"></path></g>
<g transform="translate(419.25,861.25) scale(4.4633333333333)"><path d="M3,5.5H0v-5h3c1.4,0,2.5,1.1,2.5,2.5v0C5.5,4.4,4.4,5.5,3,5.5z"></path></g>
<g transform="translate(471.25,861.25) scale(4.4633333333333)"><path d="M6,5.5H3C1.6,5.5,0.5,4.4,0.5,3v0c0-1.4,1.1-2.5,2.5-2.5h3V5.5z"></path></g>
<g transform="translate(497.25,861.25) scale(4.4633333333333)"><path d="M3,5.5H0v-5h3c1.4,0,2.5,1.1,2.5,2.5v0C5.5,4.4,4.4,5.5,3,5.5z"></path></g>
<g transform="translate(575.25,861.25) scale(4.4633333333333)"><circle cx="3" cy="3" r="2.5"></circle></g>
<g transform="translate(627.25,861.25) scale(4.4633333333333)"><path d="M6,5.5H3C1.6,5.5,0.5,4.4,0.5,3v0c0-1.4,1.1-2.5,2.5-2.5h3V5.5z"></path></g>
<g transform="translate(653.25,861.25) scale(4.4633333333333)"><path d="M3,5.5H0v-5h3c1.4,0,2.5,1.1,2.5,2.5v0C5.5,4.4,4.4,5.5,3,5.5z"></path></g>
<g transform="translate(757.25,861.25) scale(4.4633333333333)"><circle cx="3" cy="3" r="2.5"></circle></g>
<g transform="translate(835.25,861.25) scale(4.4633333333333)"><path d="M6,5.5H3C1.6,5.5,0.5,4.4,0.5,3v0c0-1.4,1.1-2.5,2.5-2.5h3V5.5z"></path></g>
<g transform="translate(861.25,861.25) scale(4.4633333333333)"><path d="M3,5.5H0v-5h3c1.4,0,2.5,1.1,2.5,2.5v0C5.5,4.4,4.4,5.5,3,5.5z"></path></g>
<g transform="translate(939.25,861.25) scale(4.4633333333333)"><circle cx="3" cy="3" r="2.5"></circle></g>
<g transform="translate(315.25,887.25) scale(4.4633333333333)"><path d="M6,5.5H3C1.6,5.5,0.5,4.4,0.5,3v0c0-1.4,1.1-2.5,2.5-2.5h3V5.5z"></path></g>
<g transform="translate(341.25,887.25) scale(4.4633333333333)"><rect y="0.5" width="6" height="5"></rect></g>
<g transform="translate(367.25,887.25) scale(4.4633333333333)"><rect y="0.5" width="6" height="5"></rect></g>
<g transform="translate(393.25,887.25) scale(4.4633333333333)"><rect y="0.5" width="6" height="5"></rect></g>
<g transform="translate(419.25,887.25) scale(4.4633333333333)"><path d="M3,5.5H0v-5h3c1.4,0,2.5,1.1,2.5,2.5v0C5.5,4.4,4.4,5.5,3,5.5z"></path></g>
<g transform="translate(471.25,887.25) scale(4.4633333333333)"><path d="M6,5.5H3C1.6,5.5,0.5,4.4,0.5,3v0c0-1.4,1.1-2.5,2.5-2.5h3V5.5z"></path></g>
<g transform="translate(497.25,887.25) scale(4.4633333333333)"><rect y="0.5" width="6" height="5"></rect></g>
<g transform="translate(523.25,887.25) scale(4.4633333333333)"><path d="M3,5.5H0v-5h3c1.4,0,2.5,1.1,2.5,2.5v0C5.5,4.4,4.4,5.5,3,5.5z"></path></g>
<g transform="translate(575.25,887.25) scale(4.4633333333333)"><circle cx="3" cy="3" r="2.5"></circle></g>
<g transform="translate(627.25,887.25) scale(4.4633333333333)"><path d="M6,5.5H3C1.6,5.5,0.5,4.4,0.5,3v0c0-1.4,1.1-2.5,2.5-2.5h3V5.5z"></path></g>
<g transform="translate(653.25,887.25) scale(4.4633333333333)"><rect y="0.5" width="6" height="5"></rect></g>
<g transform="translate(679.25,887.25) scale(4.4633333333333)"><rect y="0.5" width="6" height="5"></rect></g>
<g transform="translate(705.25,887.25) scale(4.4633333333333)"><path d="M3,5.5H0v-5h3c1.4,0,2.5,1.1,2.5,2.5v0C5.5,4.4,4.4,5.5,3,5.5z"></path></g>
<g transform="translate(757.25,887.25) scale(4.4633333333333)"><path d="M6,5.5H3C1.6,5.5,0.5,4.4,0.5,3v0c0-1.4,1.1-2.5,2.5-2.5h3V5.5z"></path></g>
<g transform="translate(783.25,887.25) scale(4.4633333333333)"><path d="M3,5.5H0v-5h3c1.4,0,2.5,1.1,2.5,2.5v0C5.5,4.4,4.4,5.5,3,5.5z"></path></g>
<g transform="translate(887.25,887.25) scale(4.4633333333333)"><circle cx="3" cy="3" r="2.5"></circle></g>
<g transform="translate(341.25,913.25) scale(4.4633333333333)"><path d="M6,5.5H3C1.6,5.5,0.5,4.4,0.5,3v0c0-1.4,1.1-2.5,2.5-2.5h3V5.5z"></path></g>
<g transform="translate(367.25,913.25) scale(4.4633333333333)"><rect y="0.5" width="6" height="5"></rect></g>
<g transform="translate(393.25,913.25) scale(4.4633333333333)"><rect y="0.5" width="6" height="5"></rect></g>
<g transform="translate(419.25,913.25) scale(4.4633333333333)"><rect y="0.5" width="6" height="5"></rect></g>
<g transform="translate(445.25,913.25) scale(4.4633333333333)"><rect y="0.5" width="6" height="5"></rect></g>
<g transform="translate(471.25,913.25) scale(4.4633333333333)"><rect y="0.5" width="6" height="5"></rect></g>
<g transform="translate(497.25,913.25) scale(4.4633333333333)"><rect y="0.5" width="6" height="5"></rect></g>
<g transform="translate(523.25,913.25) scale(4.4633333333333)"><rect y="0.5" width="6" height="5"></rect></g>
<g transform="translate(549.25,913.25) scale(4.4633333333333)"><rect y="0.5" width="6" height="5"></rect></g>
<g transform="translate(575.25,913.25) scale(4.4633333333333)"><rect y="0.5" width="6" height="5"></rect></g>
<g transform="translate(601.25,913.25) scale(4.4633333333333)"><path d="M3,5.5H0v-5h3c1.4,0,2.5,1.1,2.5,2.5v0C5.5,4.4,4.4,5.5,3,5.5z"></path></g>
<g transform="translate(705.25,913.25) scale(4.4633333333333)"><circle cx="3" cy="3" r="2.5"></circle></g>
<g transform="translate(757.25,913.25) scale(4.4633333333333)"><circle cx="3" cy="3" r="2.5"></circle></g>
<g transform="translate(809.25,913.25) scale(4.4633333333333)"><circle cx="3" cy="3" r="2.5"></circle></g>
<g transform="translate(887.25,913.25) scale(4.4633333333333)"><circle cx="3" cy="3" r="2.5"></circle></g>
<g transform="translate(341.25,939.25) scale(4.4633333333333)"><circle cx="3" cy="3" r="2.5"></circle></g>
<g transform="translate(393.25,939.25) scale(4.4633333333333)"><circle cx="3" cy="3" r="2.5"></circle></g>
<g transform="translate(471.25,939.25) scale(4.4633333333333)"><circle cx="3" cy="3" r="2.5"></circle></g>
<g transform="translate(549.25,939.25) scale(4.4633333333333)"><circle cx="3" cy="3" r="2.5"></circle></g>
<g transform="translate(627.25,939.25) scale(4.4633333333333)"><circle cx="3" cy="3" r="2.5"></circle></g>
<g transform="translate(705.25,939.25) scale(4.4633333333333)"><path d="M6,5.5H3C1.6,5.5,0.5,4.4,0.5,3v0c0-1.4,1.1-2.5,2.5-2.5h3V5.5z"></path></g>
<g transform="translate(731.25,939.25) scale(4.4633333333333)"><rect y="0.5" width="6" height="5"></rect></g>
<g transform="translate(757.25,939.25) scale(4.4633333333333)"><path d="M3,5.5H0v-5h3c1.4,0,2.5,1.1,2.5,2.5v0C5.5,4.4,4.4,5.5,3,5.5z"></path></g>
<g transform="translate(913.25,939.25) scale(4.4633333333333)"><circle cx="3" cy="3" r="2.5"></circle></g>
</g></g></mask></defs>
<rect x="0" y="0" width="1072.5" height="1340.625" mask="url(#qrmask)" fill="url(#pattern-mask)"></rect>
<g fill="#818cf8" transform="scale(44.6875)"><path d="M1.3,24l21.3,0c0.7,0,1.3-0.6,1.3-1.3l0-21.3C24,0.6,23.4,0,22.7,0L1.3,0C0.6,0,0,0.6,0,1.3l0,21.3 C0,23.4,0.6,24,1.3,24z M1,2c0-0.6,0.5-1,1-1l20,0c0.6,0,1,0.5,1,1v20c0,0.6-0.5,1-1,1L2,23c-0.6,0-1-0.5-1-1V2z"></path><path d="M1,30h22c0.5,0,1-0.4,1-1v-3c0-0.5-0.4-1-1-1H13l-1-1l-1,1H1c-0.5,0-1,0.4-1,1v3C0,29.6,0.4,30,1,30z"></path></g>
<g><g transform="translate(107.25,107.25)" fill="#818cf8"><g transform="scale(13)"><path d="M0,0l0,7c0,3.9,3.1,7,7,7h7V7c0-3.9-3.1-7-7-7H0z M7,12L7,12c-2.8,0-5-2.2-5-5v0c0-2.8,2.2-5,5-5h0c2.8,0,5,2.2,5,5v0 C12,9.8,9.8,12,7,12z"></path></g></g>
<g transform="translate(783.25,107.25)" fill="#818cf8"><g transform="scale(13) rotate(90 7 7)"><path d="M0,0l0,7c0,3.9,3.1,7,7,7h7V7c0-3.9-3.1-7-7-7H0z M7,12L7,12c-2.8,0-5-2.2-5-5v0c0-2.8,2.2-5,5-5h0c2.8,0,5,2.2,5,5v0 C12,9.8,9.8,12,7,12z"></path></g></g>
<g transform="translate(107.25,783.25)" fill="#818cf8"><g transform="scale(13) rotate(-90 7 7)"><path d="M0,0l0,7c0,3.9,3.1,7,7,7h7V7c0-3.9-3.1-7-7-7H0z M7,12L7,12c-2.8,0-5-2.2-5-5v0c0-2.8,2.2-5,5-5h0c2.8,0,5,2.2,5,5v0 C12,9.8,9.8,12,7,12z"></path></g></g>
<g transform="translate(159.25,159.25)" fill="#22d3ee"><g transform="scale(13)"><path d="M3,6L3,6C1.3,6,0,4.7,0,3l0-3l3,0c1.7,0,3,1.3,3,3v0C6,4.7,4.7,6,3,6z"></path></g></g>
<g transform="translate(835.25,159.25)" fill="#22d3ee"><g transform="scale(13) rotate(90 3 3)"><path d="M3,6L3,6C1.3,6,0,4.7,0,3l0-3l3,0c1.7,0,3,1.3,3,3v0C6,4.7,4.7,6,3,6z"></path></g></g>
<g transform="translate(159.25,835.25)" fill="#22d3ee"><g transform="scale(13) rotate(-90 3 3)"><path d="M3,6L3,6C1.3,6,0,4.7,0,3l0-3l3,0c1.7,0,3,1.3,3,3v0C6,4.7,4.7,6,3,6z"></path></g></g></g>
<text fill="#ffffff" font-family="'Inter, sans-serif" font-size="110.32847222222px" text-anchor="middle" x="525.625" y="154.15277777778" transform="translate(0,1117.1875)" font-weight="bold">SurveyHub</text>
</svg>